<svg width="76" height="61" viewBox="0 0 76 61" fill="none" xmlns="http://www.w3.org/2000/svg">
<path d="M38.156 0.0537109C18.9665 1.05201 14.4464 15.9987 14.5851 23.3473L60.2016 22.654C60.9873 15.9063 57.6782 1.93938 38.156 0.0537109Z" fill="#E1B96A"/>
<path d="M52.8525 19.7422C55.139 19.1876 54.9573 10.5912 53.8231 6.29297C59.9203 11.95 60.5373 20.112 60.0836 23.4858C59.5846 23.2547 56.2278 22.0716 52.8525 19.7422Z" fill="#BB9156"/>
<path d="M20.2695 20.5741C25.3997 14.8432 40.6237 7.45787 54.378 20.4357C25.677 21.4063 21.7947 20.5741 20.2695 20.5741Z" fill="#C92139"/>
<path d="M0.581011 39.5697C-3.96678 53.4349 19.299 58.8423 31.5004 59.8129C46.0126 60.275 75.1757 57.428 75.7303 42.3426C72.5413 23.486 50.4956 17.8013 38.7102 17.3853C26.9248 16.9694 6.26575 22.2381 0.581011 39.5697Z" fill="#BD9055"/>
<path d="M1.26658 42.6197L2.09849 48.859C1.43296 48.4154 0.619535 47.0103 0.434666 46.2247C0.203579 44.5608 -0.175403 41.0668 0.157362 40.4013C0.573318 39.5694 0.71197 39.1534 0.71197 38.7374C0.71197 38.3215 0.850622 37.4896 1.26658 36.6577C1.68253 35.8257 2.09849 35.8257 2.09849 35.2711C2.09849 34.8274 2.46823 33.7922 2.6531 33.33L3.20771 32.6367L4.59423 31.8048L5.28749 31.3889L5.8421 30.557L6.95132 29.3091L7.50592 28.8931L7.92188 28.0612L10.8336 25.9814L12.7747 24.8722L13.1907 24.5949L13.8839 23.6244L17.7662 21.5446L19.846 20.2967L20.9552 20.574L22.203 19.7421L24.1442 19.4648H25.392L26.224 18.7715L28.7197 17.6623H31.77L33.7112 17.385L34.6817 17.6623L35.9296 17.9396H38.0094V17.385L44.3874 17.9396L46.3285 18.2169L47.4377 18.7715H49.7948L52.1519 19.4648L53.9544 19.7421L61.8576 22.9311L62.2735 23.6244L64.6306 24.5949L68.5129 28.4772V29.5864H69.2061L72.5338 33.6073L73.9203 35.4098L74.4749 37.2123L75.5841 39.9853V40.9559L76.0001 42.897L75.5841 45.2541L74.8909 44.2835V43.1743V41.9264L74.4749 40.9559L73.5043 39.9853V38.7374V37.9055L72.5338 36.6577L71.5632 35.9644V34.8552L71.1472 33.6073L70.3153 32.7754L69.2061 32.2208L68.5129 31.1116L67.265 30.557L66.7104 29.8637L66.0171 28.8931H65.1852V27.7839L64.076 27.0907H63.2441L62.2735 26.1201L60.887 24.5949L59.7778 24.0403H58.6686L57.9753 22.9311H56.5888L53.6771 21.8219L51.5973 20.99H50.4881C49.9797 20.8513 48.8243 20.574 48.2696 20.574H46.3285L45.9126 20.99L43.5555 19.7421H42.7236H41.1984H39.9505H38.98H37.3161H35.6523H33.7112H32.0473H31.0768L28.7197 20.99H26.7786C26.3626 21.2673 25.4475 21.8219 25.1147 21.8219H23.3123C22.9425 21.9605 22.0921 22.3765 21.6484 22.9311C21.2048 23.4857 20.4468 23.1622 20.1233 22.9311H19.0141V24.0403L17.7662 24.5949L16.241 25.2882L13.468 27.0907C12.8209 27.5991 11.4436 28.6713 11.1109 28.8931C10.7781 29.115 9.86301 29.6326 9.44705 29.8637L7.92188 31.1116L7.22862 32.2208H6.25805L4.87153 34.8552C4.73288 35.3174 4.34466 36.3249 3.90097 36.6577C3.34636 37.0736 2.6531 38.3215 2.6531 38.7374C2.6531 39.0702 2.09849 41.0021 1.82119 41.9264L1.26658 42.6197Z" fill="#E1B96A"/>
<path d="M26.6474 58.7039L26.2314 55.9309C28.228 52.936 43.4243 53.204 50.7729 53.7124L49.109 57.872L47.9998 55.9309L46.336 59.6745L45.7814 57.456L29.9751 58.7039L28.4499 60.9223L27.8953 57.456L26.6474 58.7039Z" fill="black"/>
<path d="M20.6857 45.6703L20.4085 41.0947C20.1774 41.2334 19.2161 40.7066 17.2195 37.4899C14.7237 33.4689 21.5177 25.4273 27.757 23.9021L27.8056 23.8902C34.01 22.3736 36.6238 21.7346 43.702 23.0701C51.0506 24.4565 60.2016 36.7965 57.9832 43.4518C62.1428 46.5022 54.7942 52.8802 51.0506 52.8802C49.2481 55.7919 40.929 60.7833 37.1854 60.7833C33.4418 60.7833 25.9546 57.0397 23.3202 52.8802C15.6943 51.355 15.4169 46.2249 16.2488 42.7586C17.9127 41.0948 20.1311 43.9603 20.6857 45.6703Z" fill="#EEC3A1"/>
<path d="M57.8607 44.6729C58.6767 45.2094 57.9504 46.2205 57.6414 46.462C57.4174 46.6371 56.8751 46.7885 56.5621 46.8586C56.804 49.0993 55.405 49.9862 54.6752 50.1496L53.1014 50.2264C52.93 50.4848 52.5632 50.9707 52.4666 50.8471C52.37 50.7235 52.711 49.9923 52.8936 49.6422C53.0762 49.2921 54.0883 49.2395 54.0883 49.2395C54.1501 48.7349 54.3833 47.5156 54.8215 46.6753C55.3693 45.6249 56.8115 43.9833 57.8607 44.6729Z" fill="#CD936E" fill-opacity="0.8"/>
<path d="M16.2481 48.582L14.5842 51.9096V44.6997C13.4288 45.2543 10.8129 46.3913 9.59277 46.5022C11.3953 44.0065 14.3069 41.2334 14.1683 38.599C13.0591 39.0427 11.3953 38.7839 10.702 38.599C11.8574 37.952 14.5842 35.7428 16.2481 32.0824C17.7995 28.6693 24.5042 25.1429 27.8949 23.7633C28.1406 23.6633 27.6793 23.9831 27.8949 23.9019C28.8462 23.6336 30.0241 23.367 31.3612 23.1442C32.1842 23.0071 33.0676 22.8865 33.9955 22.7925C40.128 22.1708 48.206 22.7041 53.6841 27.2296C59.2075 32.6148 59.6427 35.6622 59.9201 37.6045L59.9235 37.6285C61.1436 39.1814 61.8184 40.8637 62.0033 41.5107L59.9235 39.8469V43.4519L58.8143 42.3426C57.8437 43.7292 55.5975 46.6131 54.3774 47.0568C54.4883 44.8384 54.9782 41.9729 55.2093 40.8175L53.6841 43.4519C54.1001 41.9729 55.0984 39.015 54.1001 36.2419C53.5455 39.6805 53.0371 40.8175 52.2976 40.8175L50.7725 34.1622L46.0583 24.8725V25.7044L46.7253 37.3512L42.3147 23.9019C42.1298 28.3388 41.0668 36.7966 41.0668 36.2419C41.0668 35.6873 35.9367 27.5067 33.9955 22.7925C33.0676 22.8865 32.1842 23.0071 31.3612 23.1442L30.5292 35.5487L27.8949 23.9019C27.6793 23.9831 28.1406 23.6633 27.8949 23.7633C26.5545 25.1515 24.4008 30.2799 24.8445 40.2629C23.5134 36.7134 21.7942 37.0276 21.6555 37.3512L22.0715 42.3426L20.5463 40.8175V45.5316C20.2228 44.6073 19.0766 42.6754 17.08 42.3426C15.7489 42.7863 15.9708 46.6871 16.2481 48.582Z" fill="#CD8F68"/>
<path d="M16.5254 48.4433L14.5842 51.9096V44.6997C13.4288 45.2543 10.8129 46.3913 9.59277 46.5022C11.3953 44.0065 14.3069 41.2334 14.1683 38.599C13.0591 39.0427 11.3953 38.7839 10.702 38.599C11.8574 37.952 14.5842 35.7428 16.2481 32.0824C17.7995 28.6693 23.811 25.5536 27.2016 24.174C27.4473 24.074 27.6793 23.9831 27.8949 23.9019C28.8462 23.6336 30.0241 23.367 31.3612 23.1442C32.1842 23.0071 33.0676 22.8865 33.9955 22.7925C40.128 22.1708 48.206 22.7041 53.6841 27.2296C59.2075 32.6148 59.6427 35.6622 59.9201 37.6045L59.9235 37.6285C61.1436 39.1814 61.8184 40.8637 62.0033 41.5107L59.9235 39.8469V43.4519L58.8143 42.3426C57.8437 43.7292 55.5975 46.6131 54.3774 47.0568C54.4883 44.8384 54.9782 41.9729 55.2093 40.8175L53.6841 43.4519C54.1001 41.9729 54.6824 38.3217 53.6841 35.5487C53.1295 38.9873 51.5119 39.8469 50.7725 39.8469V34.0235L46.3356 23.9019L44.3945 23.4859L46.3356 37.6285L40.3735 25.0111C40.1887 29.448 39.8189 38.1831 39.8189 37.6285C39.8189 37.0739 35.9367 27.5067 33.9955 22.7925C33.0676 22.8865 32.1842 23.0071 31.3612 23.1442L27.8949 35.9646V23.9019C27.6793 23.9831 27.4473 24.074 27.2016 24.174C25.8613 25.5622 23.2916 30.8345 23.7353 40.8175C22.4042 37.268 21.7942 37.0276 21.6555 37.3512L22.0715 42.3426L20.5463 40.8175V45.5316C20.2228 44.6073 19.0766 42.6754 17.08 42.3426C15.7489 42.7863 15.6935 45.9476 16.5254 48.4433Z" fill="black"/>
<path d="M17.5629 44.2936C16.3151 44.4322 17.2856 45.8187 17.5629 46.096C17.764 46.2971 18.2839 46.5133 18.586 46.6209C18.0734 48.8155 19.3542 49.866 20.0586 50.1169L22.1384 50.5329C22.2771 50.8102 22.5821 51.3371 22.693 51.2262C22.804 51.1152 22.5544 50.348 22.4157 49.9783L20.7519 49.285C20.7519 48.7766 20.6687 47.538 20.3359 46.6507C19.92 45.5414 18.8108 44.1549 17.5629 44.2936Z" fill="#CD936E" fill-opacity="0.8"/>
<path d="M39.1604 48.3157C38.273 47.9829 38.0512 46.6056 38.0512 45.9586C38.005 45.9124 37.8293 45.9863 37.4966 46.6519C37.3579 47.7611 37.6352 47.7611 38.3285 48.593C39.0218 49.4249 40.2696 48.7316 39.1604 48.3157Z" fill="#CC8D66"/>
<path d="M50.9112 44.5608C50.2576 45.4521 48.0946 47.0922 44.6719 46.5217" stroke="#8D5E41" stroke-opacity="0.38" stroke-width="0.4328"/>
<path d="M49.4854 44.7395C49.7825 44.7692 50.4658 45.0604 50.8224 45.9874" stroke="#8D5E41" stroke-opacity="0.38" stroke-width="0.4328"/>
<path d="M48.416 45.2742C48.7131 45.3039 49.3965 45.5951 49.753 46.522" stroke="#8D5E41" stroke-opacity="0.38" stroke-width="0.4328"/>
<path d="M47.3457 45.8088C47.6428 45.8385 48.3262 46.1297 48.6827 47.0567" stroke="#8D5E41" stroke-opacity="0.38" stroke-width="0.4328"/>
<path d="M45.9199 46.1655C46.217 46.1952 46.9004 46.4864 47.2569 47.4134" stroke="#8D5E41" stroke-opacity="0.38" stroke-width="0.4328"/>
</svg>
