<svg width="48" height="46" viewBox="0 0 48 46" fill="none" xmlns="http://www.w3.org/2000/svg">
<rect x="0.265381" width="45" height="45" rx="22.5" transform="rotate(0.337958 0.265381 0)" fill="#00833F"/>
<path d="M21.1601 21.87C21.0601 21.86 20.9401 21.86 20.8301 21.87C18.4501 21.79 16.5601 19.84 16.5601 17.44C16.5601 14.99 18.5401 13 21.0001 13C23.4501 13 25.4401 14.99 25.4401 17.44C25.4301 19.84 23.5401 21.79 21.1601 21.87Z" stroke="white" stroke-width="1.5" stroke-linecap="round" stroke-linejoin="round"/>
<path d="M28.41 15C30.35 15 31.91 16.57 31.91 18.5C31.91 20.39 30.41 21.93 28.54 22C28.46 21.99 28.37 21.99 28.28 22" stroke="white" stroke-width="1.5" stroke-linecap="round" stroke-linejoin="round"/>
<path d="M16.16 25.56C13.74 27.18 13.74 29.82 16.16 31.43C18.91 33.27 23.42 33.27 26.17 31.43C28.59 29.81 28.59 27.17 26.17 25.56C23.43 23.73 18.92 23.73 16.16 25.56Z" stroke="white" stroke-width="1.5" stroke-linecap="round" stroke-linejoin="round"/>
<path d="M30.3401 31C31.0601 30.85 31.7401 30.56 32.3001 30.13C33.8601 28.96 33.8601 27.03 32.3001 25.86C31.7501 25.44 31.0801 25.16 30.3701 25" stroke="white" stroke-width="1.5" stroke-linecap="round" stroke-linejoin="round"/>
</svg>
